<?xml version="1.0" encoding="utf-8"?>
<!-- Generator: Adobe Illustrator 18.0.0, SVG Export Plug-In . SVG Version: 6.00 Build 0)  -->
<!DOCTYPE svg PUBLIC "-//W3C//DTD SVG 1.1//EN" "http://www.w3.org/Graphics/SVG/1.1/DTD/svg11.dtd">
<svg version="1.1" xmlns="http://www.w3.org/2000/svg" xmlns:xlink="http://www.w3.org/1999/xlink" x="0px" y="0px"
	 viewBox="0 0 318.6 272.8" enable-background="new 0 0 318.6 272.8" xml:space="preserve">
<g id="Layer_2">
</g>
<g id="Layer_3" display="none">
</g>
<g id="Layer_4">
	<g>
		<g>
			<g>
				
					<path fill="none" stroke="#2D4869" stroke-width="2" stroke-linecap="round" stroke-linejoin="round" stroke-miterlimit="10" d="
					M308.1,199.2L308.1,199.2l0,6.8c-0.1,3.6-1.3,5.8-3.4,7.9c-3.5,3.4-8.3,3.5-8.3,3.5l-0.1-7.6v0c0,0,1.8,0.2,3.1-1.2
					c0.9-0.9,1-1.9,1.1-3.2c0.1-1,0-6.2,0-6.2l0,0c-1.8-1-2.1-2.9-2.1-5.2c0-2.3,1.7-6.7,3.3-5.3c0.7,0.6-0.4,2.3-0.4,3.5
					c-0.1,2.2,1.1,3.9,2.9,3.9c1.7,0,3.3-1.4,2.9-3.6c-0.2-0.9-1.1-3.1-0.4-3.8c1.4-1.6,3.6,2.9,3.6,5.2
					C310.2,196.3,310.1,198.1,308.1,199.2z"/>
				
					<path fill="none" stroke="#2D4869" stroke-width="2" stroke-linecap="round" stroke-linejoin="round" stroke-miterlimit="10" d="
					M252.8,201.1l39.6,0c1.2,0,2.2-1,2.2-2.2l0-34.4c0-1.2-1-2.2-2.2-2.2l-10.7,0l-18.6,0l-10.2,0c-1.2,0-2.2,1-2.2,2.2l0,34.4
					C250.6,200.1,251.6,201.1,252.8,201.1"/>
				
					<path fill="none" stroke="#2D4869" stroke-width="2" stroke-linecap="round" stroke-linejoin="round" stroke-miterlimit="10" d="
					M252.8,201.1l39.6,0c1.2,0,2.2-1,2.2-2.2l0-34.4c0-1.2-1-2.2-2.2-2.2l-10.7,0l-18.6,0l-10.2,0c-1.2,0-2.2,1-2.2,2.2l0,34.4
					C250.6,200.1,251.6,201.1,252.8,201.1z"/>
				
					<polygon fill="none" stroke="#2D4869" stroke-width="2" stroke-linecap="round" stroke-linejoin="round" stroke-miterlimit="10" points="
					285.8,229.8 284.5,238 284.5,246.2 276.6,246.2 276.6,238 275.3,229.8 				"/>
				
					<polygon fill="none" stroke="#2D4869" stroke-width="2" stroke-linecap="round" stroke-linejoin="round" stroke-miterlimit="10" points="
					274.5,254.4 286.6,254.4 284.5,246.2 276.6,246.2 				"/>
				
					<polygon fill="none" stroke="#2D4869" stroke-width="2" stroke-linecap="round" stroke-linejoin="round" stroke-miterlimit="10" points="
					274.5,254.4 286.6,254.4 284.5,246.2 276.6,246.2 				"/>
				
					<polygon fill="none" stroke="#2D4869" stroke-width="2" stroke-linecap="round" stroke-linejoin="round" stroke-miterlimit="10" points="
					269.5,229.8 268.2,238.1 268.2,238.1 268.2,246.3 260.3,246.3 260.3,238.1 259,229.9 				"/>
				
					<polygon fill="none" stroke="#2D4869" stroke-width="2" stroke-linecap="round" stroke-linejoin="round" stroke-miterlimit="10" points="
					258.1,254.5 270.3,254.5 268.2,246.3 260.3,246.3 				"/>
				
					<polygon fill="none" stroke="#2D4869" stroke-width="2" stroke-linecap="round" stroke-linejoin="round" stroke-miterlimit="10" points="
					258.1,254.5 270.3,254.5 268.2,246.3 260.3,246.3 				"/>
				
					<polygon fill="none" stroke="#2D4869" stroke-width="2" stroke-linecap="round" stroke-linejoin="round" stroke-miterlimit="10" points="
					290.2,207.3 296.3,209.8 296.3,217.5 290.2,220 				"/>
				
					<path fill="none" stroke="#2D4869" stroke-width="2" stroke-linecap="round" stroke-linejoin="round" stroke-miterlimit="10" d="
					M248.9,217.5L248.9,217.5c0,0-1.8-0.1-3.1,1.2c-1.3,1.2-1.1,3.2-1.1,3.2h0l0,6l0,0c1.6,1,2,2.9,2,4.9c0,2.3-1.7,6.7-3.3,5.3
					c-0.9-0.8,0.2-2.9,0.3-3.9c0.2-1.7-1-3.5-2.7-3.5c-1.7,0-3.2,1.8-2.9,3.4c0.2,1.4,1.4,3.1,0.5,4c-1.6,1.5-3.3-2.9-3.3-5.2
					c0-2.1,0.4-3.9,2-4.9l0,0l0-6.1c0,0,0,0,0-0.1c0-0.7,0.3-5.1,3.4-8.3c3.4-3.5,8.3-3.5,8.3-3.5L248.9,217.5z"/>
				
					<polygon fill="none" stroke="#2D4869" stroke-width="2" stroke-linecap="round" stroke-linejoin="round" stroke-miterlimit="10" points="
					254.9,207.4 254.9,220 248.8,217.5 248.8,209.9 				"/>
				
					<path fill="none" stroke="#2D4869" stroke-width="2" stroke-linecap="round" stroke-linejoin="round" stroke-miterlimit="10" d="
					M257.3,230l30.4,0c1.3,0,2.4-1.1,2.4-2.4l0-22.1c0-1.3-1.1-2.4-2.4-2.4l-30.4,0c-1.3,0-2.4,1.1-2.4,2.4l0,22.1
					C255,228.9,256,230,257.3,230"/>
				
					<path fill="none" stroke="#2D4869" stroke-width="2" stroke-linecap="round" stroke-linejoin="round" stroke-miterlimit="10" d="
					M257.3,230l30.4,0c1.3,0,2.4-1.1,2.4-2.4l0-22.1c0-1.3-1.1-2.4-2.4-2.4l-30.4,0c-1.3,0-2.4,1.1-2.4,2.4l0,22.1
					C255,228.9,256,230,257.3,230z"/>
			</g>
			<g>
				
					<rect x="128" y="237" fill="none" stroke="#2D4869" stroke-width="2" stroke-linecap="round" stroke-linejoin="round" stroke-miterlimit="10" width="13" height="28.2"/>
				
					<ellipse fill="none" stroke="#2D4869" stroke-width="2" stroke-linecap="round" stroke-linejoin="round" stroke-miterlimit="10" cx="152.2" cy="216.4" rx="6.2" ry="6.2"/>
				
					<rect x="153.6" y="237" fill="none" stroke="#2D4869" stroke-width="2" stroke-linecap="round" stroke-linejoin="round" stroke-miterlimit="10" width="22.8" height="15.3"/>
				
					<polygon fill="none" stroke="#2D4869" stroke-width="2" stroke-linecap="round" stroke-linejoin="round" stroke-miterlimit="10" points="
					194,230.9 186.1,230.9 186.1,265.2 118.2,265.2 118.2,230.9 110.3,230.9 152.2,188.6 167.4,204 167.4,190.4 175.2,190.4 
					175.2,211.8 				"/>
			</g>
			<g>
				
					<polygon fill="none" stroke="#2D4869" stroke-width="2" stroke-linecap="round" stroke-linejoin="round" stroke-miterlimit="10" points="
					233.8,38.7 233.8,34.8 220.4,34.8 220.4,38.7 				"/>
				
					<path fill="none" stroke="#2D4869" stroke-width="2" stroke-linecap="round" stroke-linejoin="round" stroke-miterlimit="10" d="
					M255.6,38.7l6.2-11l16.1,0l6.2,10.9l11.4,0c2.5,0,4.5,2,4.5,4.5l0,41.4c0,2.5-2,4.6-4.5,4.6l-76.1,0.1c-2.5,0-4.5-2-4.5-4.5
					l0-41.4c0-2.5,2-4.6,4.5-4.6L255.6,38.7z"/>
				
					<path fill="none" stroke="#2D4869" stroke-width="2" stroke-linecap="round" stroke-linejoin="round" stroke-miterlimit="10" d="
					M291.4,63.5c0,11.9-9.5,21.5-21.2,21.6c-11.7,0-21.2-9.6-21.2-21.5c0-11.9,9.5-21.5,21.2-21.6C282,41.9,291.5,51.6,291.4,63.5z"
					/>
				
					<path fill="none" stroke="#2D4869" stroke-width="2" stroke-linecap="round" stroke-linejoin="round" stroke-miterlimit="10" d="
					M284.3,63.5c0,7.9-6.3,14.3-14.1,14.3c-7.8,0-14-6.4-14-14.3s6.3-14.3,14.1-14.3C278,49.2,284.3,55.6,284.3,63.5z"/>
				
					<line fill="none" stroke="#2D4869" stroke-width="2" stroke-linecap="round" stroke-linejoin="round" stroke-miterlimit="10" x1="233.8" y1="84.4" x2="233.8" y2="44.2"/>
			</g>
			<g>
				
					<path fill="none" stroke="#2D4869" stroke-width="2" stroke-linecap="round" stroke-linejoin="round" stroke-miterlimit="10" d="
					M177.6,100.7c0,0-11.2,0.2-11,8.4s3.4,7.1,3.4,12.7c0,5.6-10,7.9-9.9,22.5c0,14.6,11.6,18.1,22.9,18.2s23.4-5,23.3-17.5
					c0-12.5-10-16.2-10-22.5c0-6.3,3.9-6.7,3.9-11s-3.9-4-2.4-4c1.5,0-1.1,3.5-5.2,3.5c-4.2,0-4.9-4.5-4.9-6.1
					c0-1.6-1.5-5.2-1.5-5.2l-1.2-54.8l2.7-3.9c0,0-0.8-14.3-0.4-15.1c0.4-0.8-1.4-4.1-4.6-4.1c-3.2,0-5.7,2.2-5.2,3.1
					c0.4,1-0.2,15.9-0.2,15.9l2,4.1L177.6,100.7z"/>
				
					<polyline fill="none" stroke="#2D4869" stroke-width="2" stroke-linecap="round" stroke-linejoin="round" stroke-miterlimit="10" points="
					177.6,100.7 177.7,112 186,112 186.1,99.6 				"/>
				
					<path fill="none" stroke="#2D4869" stroke-width="2" stroke-linecap="round" stroke-linejoin="round" stroke-miterlimit="10" d="
					M197.5,134.2c0,1.1-0.9,2-2,2s-2-0.9-2-2s0.9-2,2-2C196.6,132.2,197.5,133.1,197.5,134.2z"/>
				
					<path fill="none" stroke="#2D4869" stroke-width="2" stroke-linecap="round" stroke-linejoin="round" stroke-miterlimit="10" d="
					M200.6,143.6c0,1.1-0.9,2-2,2c-1.1,0-2-0.9-2-2c0-1.1,0.9-2,2-2S200.6,142.5,200.6,143.6z"/>
				
					<path fill="none" stroke="#2D4869" stroke-width="2" stroke-linecap="round" stroke-linejoin="round" stroke-miterlimit="10" d="
					M185.5,127.8l-5.6,0c-1.3,0-2.4,1.1-2.4,2.5l0,0.3c0,1.4,1.1,2.5,2.4,2.5l5.6,0c1.3,0,2.4-1.1,2.4-2.5l0-0.3
					C187.9,128.9,186.8,127.8,185.5,127.8z"/>
				
					<path fill="none" stroke="#2D4869" stroke-width="2" stroke-linecap="round" stroke-linejoin="round" stroke-miterlimit="10" d="
					M185.4,113.6l-5.6,0c-1.3,0-2.4,1.1-2.4,2.5l0,0.3c0,1.4,1.1,2.5,2.4,2.5l5.6,0c1.3,0,2.4-1.1,2.4-2.5l0-0.3
					C187.9,114.8,186.8,113.7,185.4,113.6z"/>
			</g>
			<g>
				
					<path fill="none" stroke="#2D4869" stroke-width="2" stroke-linecap="round" stroke-linejoin="round" stroke-miterlimit="10" d="
					M85.2,175.6l-28.4-0.5c-2.9,0-5.2-2.4-5.2-5.3l1-63.2c0-2.9,2.4-5.2,5.3-5.2l28.4,0.5c2.9,0,5.2,2.4,5.2,5.3l-1,63.2
					C90.5,173.3,88.1,175.6,85.2,175.6z"/>
				
					<path fill="none" stroke="#2D4869" stroke-width="2" stroke-linecap="round" stroke-linejoin="round" stroke-miterlimit="10" d="
					M88.5,165.8l-34.6-0.5c-0.7,0-1.2-0.6-1.2-1.3l0.9-54.8c0-0.7,0.6-1.2,1.3-1.2l34.6,0.5c0.7,0,1.2,0.6,1.2,1.3l-0.9,54.8
					C89.7,165.2,89.2,165.8,88.5,165.8z"/>
				
					<ellipse transform="matrix(0.9999 1.587662e-02 -1.587662e-02 0.9999 2.7146 -1.1073)" fill="none" stroke="#2D4869" stroke-width="2" stroke-linecap="round" stroke-linejoin="round" stroke-miterlimit="10" cx="71.1" cy="170.4" rx="3.2" ry="3.3"/>
			</g>
			<g>
				
					<path fill="none" stroke="#2D4869" stroke-width="2" stroke-linecap="round" stroke-linejoin="round" stroke-miterlimit="10" d="
					M96.9,66H19.6l-1.4-4.2L8.4,10.4C8.1,8.8,9.3,7.3,11,7.3h74.6c0,0,0.1,0,0.1,0L96.9,66z"/>
				
					<path fill="none" stroke="#2D4869" stroke-width="2" stroke-linecap="round" stroke-linejoin="round" stroke-miterlimit="10" d="
					M129.6,66l-0.1,0.8c-0.1,0.8-0.8,1.3-1.6,1.3H21.4c-0.7,0-1.3-0.4-1.5-1.1l-0.3-1H129.6z"/>
				
					<path fill="none" stroke="#2D4869" stroke-width="2" stroke-linecap="round" stroke-linejoin="round" stroke-miterlimit="10" d="
					M130.3,61.8l-0.7,4.2H96.9L85.7,7.3c1.2,0.1,2.2,0.9,2.4,2.1l10,52.4H130.3z"/>
				<g>
					
						<path fill="none" stroke="#2D4869" stroke-width="2" stroke-linecap="round" stroke-linejoin="round" stroke-miterlimit="10" d="
						M57.9,40.5c0.2,1,0.2,2-0.1,2.9c-0.7,2.3-2.9,4-5.8,3.6c-1.2-0.1-2.4-0.7-3.3-1.4c-0.7-0.6-1.4-1.3-1.8-2.2
						c-0.5-1-0.7-2.1-0.6-3.2c0.1-2.2,0.9-4.2,0.9-4.2s0.3-1.5,0.2-2.4c-0.1-1.1,0.5-2.2,1.4-2.6c1.8-0.9,4,0.5,4.4,2.4
						c0.2,0.7,1.2,1.8,1.2,1.8s0.1,0.1,0.3,0.3c0.4,0.4,1.1,1.2,1.8,2.1C57.1,38.6,57.7,39.6,57.9,40.5z"/>
					
						<path fill="none" stroke="#2D4869" stroke-width="2" stroke-linecap="round" stroke-linejoin="round" stroke-miterlimit="10" d="
						M49.3,29.7c0,0-1.2-0.3-2.2-1.2s-1.2-2.2-1.2-2.2s1.2,0.3,2.2,1.2C49,28.4,49.3,29.7,49.3,29.7z"/>
				</g>
			</g>
			<path fill="none" stroke="#2D4869" stroke-width="2" stroke-linecap="round" stroke-linejoin="round" stroke-miterlimit="10" d="
				M19.8,113.6c0-2.2-0.3-4.9-1.7-6.3c-1.4-1.5-4-1.7-6.2-1.7c2.2,0,4.8-0.3,6.2-1.7c1.4-1.5,1.7-4.1,1.7-6.3c0,2.2,0.3,4.9,1.7,6.3
				c1.4,1.5,4,1.7,6.2,1.7c-2.2,0-4.8,0.3-6.2,1.7C20,108.7,19.8,111.4,19.8,113.6z"/>
			<path fill="none" stroke="#2D4869" stroke-width="2" stroke-linecap="round" stroke-linejoin="round" stroke-miterlimit="10" d="
				M107.5,189.6c0-2.2-0.3-4.9-1.7-6.3c-1.4-1.5-4-1.7-6.2-1.7c2.2,0,4.8-0.3,6.2-1.7c1.4-1.5,1.7-4.1,1.7-6.3
				c0,2.2,0.3,4.9,1.7,6.3c1.4,1.5,4,1.7,6.2,1.7c-2.2,0-4.8,0.3-6.2,1.7C107.8,184.7,107.5,187.3,107.5,189.6z"/>
			<path fill="none" stroke="#2D4869" stroke-width="2" stroke-linecap="round" stroke-linejoin="round" stroke-miterlimit="10" d="
				M146.2,99.8c0-2.2-0.3-4.9-1.7-6.3c-1.4-1.5-4-1.7-6.2-1.7c2.2,0,4.8-0.3,6.2-1.7c1.4-1.5,1.7-4.1,1.7-6.3c0,2.2,0.3,4.9,1.7,6.3
				c1.4,1.5,4,1.7,6.2,1.7c-2.2,0-4.8,0.3-6.2,1.7C146.5,94.9,146.2,97.6,146.2,99.8z"/>
			<path fill="none" stroke="#2D4869" stroke-width="2" stroke-linecap="round" stroke-linejoin="round" stroke-miterlimit="10" d="
				M208.9,209.1c0-2.2-0.3-4.9-1.7-6.3c-1.4-1.5-4-1.7-6.2-1.7c2.2,0,4.8-0.3,6.2-1.7c1.4-1.5,1.7-4.1,1.7-6.3
				c0,2.2,0.3,4.9,1.7,6.3c1.4,1.5,4,1.7,6.2,1.7c-2.2,0-4.8,0.3-6.2,1.7C209.1,204.3,208.9,206.9,208.9,209.1z"/>
			<path fill="none" stroke="#2D4869" stroke-width="2" stroke-linecap="round" stroke-linejoin="round" stroke-miterlimit="10" d="
				M274.9,121.6c0-2.2-0.3-4.9-1.7-6.3c-1.4-1.5-4-1.7-6.2-1.7c2.2,0,4.8-0.3,6.2-1.7c1.4-1.5,1.7-4.1,1.7-6.3
				c0,2.2,0.3,4.9,1.7,6.3c1.4,1.5,4,1.7,6.2,1.7c-2.2,0-4.8,0.3-6.2,1.7C275.2,116.8,274.9,119.4,274.9,121.6z"/>
			<path fill="none" stroke="#2D4869" stroke-width="2" stroke-linecap="round" stroke-linejoin="round" stroke-miterlimit="10" d="
				M123.4,29.6c0-2.2-0.3-4.9-1.7-6.3c-1.4-1.5-4-1.7-6.2-1.7c2.2,0,4.8-0.3,6.2-1.7c1.4-1.5,1.7-4.1,1.7-6.3c0,2.2,0.3,4.9,1.7,6.3
				c1.4,1.5,4,1.7,6.2,1.7c-2.2,0-4.8,0.3-6.2,1.7C123.7,24.7,123.4,27.3,123.4,29.6z"/>
			<g>
				
					<path fill="none" stroke="#2D4869" stroke-width="2" stroke-linecap="round" stroke-linejoin="round" stroke-miterlimit="10" d="
					M71.2,237.6h-1.7c0-15.8-9.4-26.4-23.5-26.4s-23.5,10.6-23.5,26.4h-1.7c0-16.8,10.1-28.1,25.2-28.1S71.2,220.8,71.2,237.6z"/>
				
					<path fill="none" stroke="#2D4869" stroke-width="2" stroke-linecap="round" stroke-linejoin="round" stroke-miterlimit="10" d="
					M72.2,265.5h-7.2v-27.2h7.2c3.7,0,6.8,3,6.8,6.8v13.7C79,262.5,76,265.5,72.2,265.5z"/>
				
					<path fill="none" stroke="#2D4869" stroke-width="2" stroke-linecap="round" stroke-linejoin="round" stroke-miterlimit="10" d="
					M19.7,265.5h7.2v-27.2h-7.2c-3.7,0-6.8,3-6.8,6.8v13.7C12.9,262.5,16,265.5,19.7,265.5z"/>
			</g>
			
				<polygon fill="none" stroke="#2D4869" stroke-width="2" stroke-linecap="round" stroke-linejoin="round" stroke-miterlimit="10" points="
				22.5,163.3 19.1,167.8 13.5,167 11.3,161.7 14.8,157.2 20.4,158 			"/>
			
				<polygon fill="none" stroke="#2D4869" stroke-width="2" stroke-linecap="round" stroke-linejoin="round" stroke-miterlimit="10" points="
				100,238.1 96.5,242.6 90.9,241.9 88.8,236.6 92.2,232.1 97.8,232.8 			"/>
			
				<polygon fill="none" stroke="#2D4869" stroke-width="2" stroke-linecap="round" stroke-linejoin="round" stroke-miterlimit="10" points="
				134.1,136.8 130.7,141.3 125.1,140.6 123,135.3 126.4,130.8 132,131.5 			"/>
			
				<polygon fill="none" stroke="#2D4869" stroke-width="2" stroke-linecap="round" stroke-linejoin="round" stroke-miterlimit="10" points="
				244.6,144.9 241.2,149.4 235.6,148.6 233.4,143.3 236.9,138.8 242.5,139.6 			"/>
			
				<polygon fill="none" stroke="#2D4869" stroke-width="2" stroke-linecap="round" stroke-linejoin="round" stroke-miterlimit="10" points="
				245.8,17.1 242.3,21.6 236.7,20.8 234.6,15.6 238,11 243.6,11.8 			"/>
		</g>
	</g>
</g>
<g id="Layer_1">
</g>
</svg>
